<svg width="18" height="19" viewBox="0 0 18 19" fill="none" xmlns="http://www.w3.org/2000/svg">
<g clip-path="url(#clip0_1_386)">
<path d="M17.6484 8.24281H9.07031V11.8991H13.9219C13.2188 14.1022 11.5781 15.2038 9 15.2038C7.82812 15.2038 6.77344 14.8522 5.83594 14.1491C4.89844 13.4459 4.25391 12.5319 3.90234 11.4069C3.55078 10.2819 3.57422 9.16859 3.97266 8.06703C4.37109 6.96547 5.0625 6.08656 6.04688 5.43031C7.03125 4.77406 8.10938 4.48109 9.28125 4.55141C10.4531 4.62172 11.5078 5.03188 12.4453 5.78188L15.1172 3.25063C14.1328 2.36 13.0195 1.71547 11.7773 1.31703C10.5352 0.918594 9.25781 0.789688 7.94531 0.930313C6.63281 1.07094 5.41406 1.49281 4.28906 2.19594C3.16406 2.89906 2.23828 3.78969 1.51172 4.86781C0.785156 5.94594 0.316406 7.14125 0.105469 8.45375C-0.105469 9.76625 -0.0351562 11.0553 0.316406 12.3209C0.667969 13.5866 1.27734 14.7116 2.14453 15.6959C3.01172 16.6803 4.04297 17.4538 5.23828 18.0163C6.43359 18.5788 7.6875 18.86 9 18.86C10.7344 18.86 12.2812 18.485 13.6406 17.735C15.0938 16.9381 16.1719 15.7663 16.875 14.2194C17.625 12.5788 17.8828 10.5866 17.6484 8.24281Z" fill="black"/>
</g>
<defs>
<clipPath id="clip0_1_386">
<rect width="18" height="18" fill="white" transform="matrix(1 0 0 -1 0 18.86)"/>
</clipPath>
</defs>
</svg>
