<svg width="33" height="33" viewBox="0 0 33 33" fill="none" xmlns="http://www.w3.org/2000/svg">
<path d="M26.417 13.717C26.876 14.988 27.14 16.352 27.14 17.78C27.14 24.397 21.757 29.78 15.14 29.78C8.52301 29.78 3.14001 24.397 3.14001 17.78C3.14001 11.163 8.52301 5.78003 15.14 5.78003C17.779 5.78003 20.214 6.64703 22.198 8.09603L23.752 6.76403C21.373 4.90203 18.388 3.78003 15.14 3.78003C7.42001 3.78003 1.14001 10.06 1.14001 17.78C1.14001 25.5 7.42001 31.78 15.14 31.78C22.86 31.78 29.14 25.5 29.14 17.78C29.14 15.761 28.702 13.845 27.929 12.11L26.417 13.717Z" fill="#BB0A07"/>
<path d="M29.14 4.78003L15.14 16.78L9.14001 11.78L7.14001 13.78L15.14 22.78L31.14 5.78003L29.14 4.78003Z" fill="#BB0A07"/>
</svg>
