<svg width="18" height="19" viewBox="0 0 18 19" fill="none" xmlns="http://www.w3.org/2000/svg">
<g clip-path="url(#clip0_1_383)">
<path d="M9 3.11C10.5 3.11 11.6016 3.11 12.3047 3.11C12.8672 3.15688 13.3828 3.27406 13.8516 3.46156C14.2266 3.55531 14.5547 3.74281 14.8359 4.02406C15.1172 4.30531 15.3047 4.63344 15.3984 5.00844C15.5859 5.47719 15.7031 5.99281 15.75 6.55531C15.75 7.25844 15.75 8.36 15.75 9.86C15.75 11.36 15.75 12.4616 15.75 13.1647C15.7031 13.7272 15.5859 14.2428 15.3984 14.7116C15.3047 15.0866 15.1172 15.4147 14.8359 15.6959C14.5547 15.9772 14.2266 16.1647 13.8516 16.2584C13.3828 16.4459 12.8672 16.5631 12.3047 16.61C11.6016 16.61 10.5 16.61 9 16.61C7.5 16.61 6.39844 16.61 5.69531 16.61C5.13281 16.5631 4.61719 16.4459 4.14844 16.2584C3.77344 16.1647 3.44531 15.9772 3.16406 15.6959C2.88281 15.4147 2.69531 15.0866 2.60156 14.7116C2.41406 14.2428 2.29688 13.7272 2.25 13.1647C2.25 12.4616 2.25 11.36 2.25 9.86C2.25 8.36 2.25 7.25844 2.25 6.55531C2.29688 5.99281 2.41406 5.47719 2.60156 5.00844C2.69531 4.63344 2.88281 4.30531 3.16406 4.02406C3.44531 3.74281 3.77344 3.55531 4.14844 3.46156C4.61719 3.27406 5.13281 3.15688 5.69531 3.11C6.39844 3.11 7.5 3.11 9 3.11ZM9 1.63344C7.45312 1.63344 6.32812 1.64516 5.625 1.66859C4.92188 1.69203 4.26562 1.80922 3.65625 2.02016C3.04688 2.23109 2.53125 2.5475 2.10938 2.96938C1.6875 3.39125 1.37109 3.90688 1.16016 4.51625C0.949219 5.12563 0.832031 5.78188 0.808594 6.485C0.785156 7.18813 0.773438 8.31313 0.773438 9.86C0.773438 11.4069 0.785156 12.5319 0.808594 13.235C0.832031 13.9381 0.949219 14.5944 1.16016 15.2038C1.37109 15.8131 1.6875 16.3288 2.10938 16.7506C2.53125 17.1725 3.04688 17.4889 3.65625 17.6998C4.26562 17.9108 4.92188 18.028 5.625 18.0514C6.32812 18.0748 7.45312 18.0866 9 18.0866C10.5469 18.0866 11.6719 18.0748 12.375 18.0514C13.0781 18.028 13.7344 17.9108 14.3438 17.6998C14.9531 17.4889 15.4688 17.1725 15.8906 16.7506C16.3125 16.3288 16.6289 15.8131 16.8398 15.2038C17.0508 14.5944 17.168 13.9381 17.1914 13.235C17.2148 12.5319 17.2266 11.4069 17.2266 9.86C17.2266 8.31313 17.2148 7.18813 17.1914 6.485C17.168 5.78188 17.0508 5.12563 16.8398 4.51625C16.6289 3.90688 16.3125 3.39125 15.8906 2.96938C15.4688 2.5475 14.9531 2.23109 14.3438 2.02016C13.7344 1.80922 13.0781 1.69203 12.375 1.66859C11.6719 1.64516 10.5469 1.63344 9 1.63344ZM9 5.64125C8.25 5.64125 7.54688 5.82875 6.89062 6.20375C6.23438 6.57875 5.71875 7.09438 5.34375 7.75063C4.96875 8.40688 4.78125 9.11 4.78125 9.86C4.78125 10.61 4.96875 11.3131 5.34375 11.9694C5.71875 12.6256 6.23438 13.1413 6.89062 13.5163C7.54688 13.8913 8.25 14.0788 9 14.0788C9.75 14.0788 10.4531 13.8913 11.1094 13.5163C11.7656 13.1413 12.2812 12.6256 12.6562 11.9694C13.0312 11.3131 13.2188 10.61 13.2188 9.86C13.2188 9.2975 13.1133 8.75844 12.9023 8.24281C12.6914 7.72719 12.3867 7.27016 11.9883 6.87172C11.5898 6.47328 11.1328 6.16859 10.6172 5.95766C10.1016 5.74672 9.5625 5.64125 9 5.64125ZM9 12.6022C8.25 12.6022 7.60547 12.3327 7.06641 11.7936C6.52734 11.2545 6.25781 10.61 6.25781 9.86C6.25781 9.11 6.52734 8.46547 7.06641 7.92641C7.60547 7.38734 8.25 7.11781 9 7.11781C9.75 7.11781 10.3945 7.38734 10.9336 7.92641C11.4727 8.46547 11.7422 9.11 11.7422 9.86C11.7422 10.61 11.4727 11.2545 10.9336 11.7936C10.3945 12.3327 9.75 12.6022 9 12.6022ZM12.4453 5.43031C12.4453 5.71156 12.5391 5.94594 12.7266 6.13344C12.9141 6.32094 13.1367 6.41469 13.3945 6.41469C13.6523 6.41469 13.8867 6.32094 14.0977 6.13344C14.3086 5.94594 14.4141 5.72328 14.4141 5.46547C14.4141 5.20766 14.3086 4.97328 14.0977 4.76234C13.8867 4.55141 13.6523 4.44594 13.3945 4.44594C13.1367 4.44594 12.9141 4.55141 12.7266 4.76234C12.5391 4.97328 12.4453 5.19594 12.4453 5.43031Z" fill="black"/>
</g>
<defs>
<clipPath id="clip0_1_383">
<rect width="18" height="18" fill="white" transform="matrix(1 0 0 -1 0 18.86)"/>
</clipPath>
</defs>
</svg>
