<svg width="81" height="81" viewBox="0 0 81 81" fill="none" xmlns="http://www.w3.org/2000/svg">
<path d="M9.5499 62.1577C6.87891 64.8287 6.87891 69.159 9.5499 71.8305C12.2209 74.501 16.5517 74.501 19.2227 71.8305C20.0978 70.9552 20.6844 69.9008 20.9861 68.7861L12.5938 60.3943C11.4789 60.696 10.425 61.2826 9.5499 62.1577ZM16.4003 64.9798C17.513 66.0922 17.5133 67.8957 16.4006 69.0082C15.2879 70.1211 13.4841 70.1211 12.3717 69.0084C11.2593 67.8957 11.2593 66.0922 12.3717 64.9793C13.4844 63.8674 15.2879 63.8674 16.4003 64.9798ZM27.7152 40.9936L40.3871 53.6652L66.6856 27.3659L54.014 14.6945L27.7152 40.9936ZM12.853 58.8548L22.5258 68.5271L37.9878 53.0646L28.3152 43.3924L12.853 58.8548ZM71.5893 9.79084C68.0901 6.29184 62.4166 6.2921 58.9174 9.79084C57.3985 11.3097 56.5399 13.2387 56.3395 15.2213L66.1591 25.0409C68.1414 24.8407 70.0704 23.9819 71.5893 22.4628C75.0883 18.9635 75.0883 13.2901 71.5893 9.79084ZM68.0959 18.9694C66.5261 20.5391 63.9806 20.5394 62.4108 18.9694C60.841 17.3996 60.841 14.854 62.4108 13.2842C63.9806 11.7145 66.5261 11.7145 68.0959 13.284C69.6659 14.854 69.6657 17.3996 68.0959 18.9694Z" fill="#2A2A2A"/>
</svg>
