<svg width="28" height="29" viewBox="0 0 28 29" fill="none" xmlns="http://www.w3.org/2000/svg">
<path d="M27.5625 14.72C27.5625 22.2104 21.4904 28.2825 14 28.2825C6.50962 28.2825 0.4375 22.2104 0.4375 14.72C0.4375 7.22959 6.50962 1.15747 14 1.15747C21.4904 1.15747 27.5625 7.22959 27.5625 14.72ZM12.4312 21.9012L22.4937 11.8387C22.8354 11.497 22.8354 10.943 22.4937 10.6013L21.2563 9.36388C20.9146 9.02213 20.3606 9.02213 20.0189 9.36388L11.8125 17.5702L7.98115 13.7388C7.63946 13.3971 7.08542 13.3971 6.74368 13.7388L5.50627 14.9762C5.16458 15.3179 5.16458 15.872 5.50627 16.2136L11.1938 21.9011C11.5355 22.2429 12.0895 22.2429 12.4312 21.9012Z" fill="#D80000"/>
</svg>
