<svg width="81" height="81" viewBox="0 0 81 81" fill="none" xmlns="http://www.w3.org/2000/svg">
<path fill-rule="evenodd" clip-rule="evenodd" d="M65.1342 28.9856C55.9386 26.4975 46.5086 32.3665 42.4383 35.3891C42.1825 32.0539 44.2142 28.825 47.5671 27.7218C53.0901 25.9062 59.1992 22.4137 57.3345 16.0364C54.0952 4.9552 32.1736 3.58528 28.8811 15.7626C26.3984 24.9394 32.2375 34.352 35.2636 38.4323C31.9321 38.6869 28.7035 36.6578 27.6024 33.3031C25.7875 27.7815 22.2925 21.6731 15.917 23.5382C4.83545 26.7778 3.46446 48.6966 15.6436 51.9912C24.8498 54.4824 34.294 48.5961 38.3502 45.577C38.6236 48.9235 36.592 52.1709 33.2249 53.2787C27.7054 55.0941 21.5964 58.5858 23.461 64.9641C26.7003 76.0447 48.6184 77.4146 51.9144 65.238C54.4007 56.0427 48.5331 46.6127 45.5106 42.5445C48.8457 42.2899 52.0707 44.3197 53.1753 47.674C54.9903 53.1953 58.4817 59.3036 64.8607 57.4386C75.9423 54.199 77.3098 32.2806 65.1342 28.9856Z" fill="#2A2A2A"/>
</svg>
