<svg width="81" height="81" viewBox="0 0 81 81" fill="none" xmlns="http://www.w3.org/2000/svg">
<path fill-rule="evenodd" clip-rule="evenodd" d="M22.5812 43.7422H26.1294V7.69401C26.1311 5.78657 26.8896 3.95775 28.2384 2.60898C29.5871 1.26022 31.4159 0.501724 33.3234 0.5L36.546 0.5C38.4478 0.510317 40.2683 1.2726 41.6101 2.62044C42.9518 3.96827 43.7058 5.79219 43.7075 7.69401V43.7422H47.2817C47.9408 43.7439 48.5724 44.0065 49.0384 44.4725C49.5044 44.9385 49.767 45.5701 49.7687 46.2292V58.8529C49.767 59.5119 49.5044 60.1435 49.0384 60.6095C48.5724 61.0756 47.9408 61.3381 47.2817 61.3398H43.7401V73.306C43.7298 75.2022 42.972 77.0178 41.6312 78.3586C40.2904 79.6994 38.4748 80.4572 36.5786 80.4675H33.3234C31.4272 80.4572 29.6116 79.6994 28.2708 78.3586C26.93 77.0178 26.1722 75.2022 26.1619 73.306V61.3398H22.5812C21.9227 61.3381 21.2918 61.0753 20.8268 60.6091C20.3619 60.1429 20.1007 59.5113 20.1007 58.8529V57.6875H16.6762C16.1814 57.6871 15.6916 57.5892 15.2346 57.3993C14.7777 57.2094 14.3628 56.9312 14.0135 56.5807C13.6615 56.2322 13.382 55.8175 13.1909 55.3605C12.9999 54.9035 12.9011 54.4133 12.9002 53.918V51.1641C12.9004 50.6702 12.9982 50.1812 13.1882 49.7253C13.3781 49.2695 13.6564 48.8557 14.007 48.5078C14.3549 48.1518 14.7699 47.8684 15.2281 47.674C15.6863 47.4795 16.1785 47.3779 16.6762 47.375H20.1007V46.2292C20.1007 45.5707 20.3619 44.9391 20.8268 44.4729C21.2918 44.0067 21.9227 43.7439 22.5812 43.7422ZM29.0916 43.7422H32.7309V29.1003C32.7309 26.2487 37.1385 26.2487 37.1385 29.1003V43.7422H40.7648V7.69401C40.7614 6.57618 40.3158 5.50512 39.5254 4.7147C38.7349 3.92427 37.6639 3.47869 36.546 3.47526H33.3234C32.2066 3.48209 31.1375 3.92876 30.3478 4.71845C29.5581 5.50814 29.1115 6.57724 29.1046 7.69401V43.7422H29.0916ZM40.7518 61.3203H29.1046V73.2865C29.1115 74.4032 29.5581 75.4723 30.3478 76.262C31.1375 77.0517 32.2066 77.4984 33.3234 77.5052H36.546C37.6639 77.5018 38.7349 77.0562 39.5254 76.2658C40.3158 75.4753 40.7614 74.4043 40.7648 73.2865V61.3398L40.7518 61.3203ZM48.7986 11.9844V9.6862H53.4796V11.9844H48.7986ZM58.3299 15.1615V4.08073H63.1932C63.5762 4.08251 63.958 4.12397 64.3325 4.20443C64.7343 4.29142 65.1108 4.46962 65.4328 4.72526C65.8213 5.03897 66.1164 5.45333 66.2856 5.92318C66.5157 6.60617 66.6194 7.32539 66.5916 8.04557C66.6113 8.77597 66.5078 9.50447 66.2856 10.2005C66.1339 10.6685 65.8649 11.0898 65.5044 11.4245C65.2087 11.6893 64.8537 11.8791 64.4692 11.9779C64.1123 12.0726 63.7447 12.1208 63.3755 12.1211C63.1867 12.1211 62.9914 12.1211 62.783 12.0885C62.5747 12.056 62.3794 12.043 62.1906 12.0104L61.6502 11.9063L61.2401 11.8216V15.1615H58.3299ZM61.227 9.52344H62.9002C63.0718 9.53319 63.2403 9.47468 63.369 9.36068C63.4948 9.22467 63.5785 9.05505 63.6098 8.8724C63.6557 8.61017 63.6775 8.34431 63.6749 8.07813C63.6818 7.81725 63.6533 7.55664 63.5903 7.30339C63.5528 7.12534 63.4672 6.96098 63.3429 6.82813C63.2835 6.77361 63.2136 6.73167 63.1375 6.70482C63.0614 6.67797 62.9807 6.66676 62.9002 6.67188H61.227V9.52344ZM48.7986 32.9609V30.6367H53.4796V32.9349L48.7986 32.9609ZM58.3299 36.112V25.0443H63.063C63.5164 25.0419 63.9678 25.1032 64.4041 25.2266C64.8025 25.3375 65.1671 25.5455 65.4653 25.832C65.7853 26.1494 66.0223 26.5407 66.1554 26.9714C66.3379 27.5545 66.4216 28.164 66.4028 28.7747C66.4074 29.1707 66.3681 29.5659 66.2856 29.9531C66.2211 30.2513 66.1136 30.5386 65.9666 30.806C65.8421 31.0303 65.679 31.2308 65.4848 31.3984C65.3036 31.5561 65.1074 31.6957 64.8989 31.8151L66.8195 36.112H63.8833L62.3338 32.2969H61.227V36.112H58.3299ZM61.227 29.9987H62.5291C62.6712 29.9999 62.8123 29.9756 62.9458 29.9271C63.0639 29.8818 63.169 29.808 63.2518 29.7122C63.3405 29.6019 63.4028 29.4727 63.4341 29.3346C63.4816 29.1519 63.5035 28.9635 63.4992 28.7747C63.504 28.5881 63.4821 28.4018 63.4341 28.2214C63.4057 28.09 63.3427 27.9687 63.2518 27.8698C63.1658 27.7839 63.0611 27.7193 62.9458 27.681C62.8107 27.6402 62.6702 27.6204 62.5291 27.6224H61.227V29.9987ZM58.2713 57.0625V45.9948H60.5695L64.4757 52.1732V45.9753H67.3729V57.043H65.0617L61.1554 50.8646V57.043L58.2713 57.0625ZM58.3299 78.013V66.9062H63.2257C63.9015 66.8863 64.572 67.0315 65.1789 67.3294C65.6848 67.6087 66.1072 68.0177 66.4028 68.5143C66.7258 69.06 66.9465 69.6602 67.0539 70.2852C67.1771 71.0012 67.2381 71.7266 67.2361 72.4531C67.2696 73.5275 67.1199 74.5996 66.7934 75.6237C66.5719 76.3493 66.1134 76.9797 65.4914 77.4141C64.815 77.8217 64.0344 78.0231 63.2453 77.9935L58.3299 78.013ZM61.227 75.4089H62.9262C63.0823 75.4195 63.2389 75.3985 63.3866 75.347C63.5343 75.2955 63.67 75.2147 63.7856 75.1094C64.0223 74.8462 64.1723 74.5167 64.2153 74.1654C64.3113 73.6042 64.3549 73.0354 64.3455 72.4661C64.3541 71.9414 64.3215 71.4168 64.2479 70.8971C64.2123 70.5838 64.115 70.2806 63.9614 70.0052C63.8637 69.8275 63.7072 69.6894 63.5187 69.6146C63.3286 69.5469 63.128 69.5138 62.9262 69.5169H61.227V75.3763V75.4089ZM48.7986 74.8294V72.5312H53.4796V74.8294H48.7986ZM20.1007 55.1094V49.9792H16.6762C16.3617 49.9788 16.0598 50.1029 15.8364 50.3242C15.6192 50.5494 15.4998 50.8513 15.5044 51.1641V53.918C15.5038 54.0738 15.5341 54.2281 15.5933 54.3723C15.6525 54.5164 15.7395 54.6474 15.8494 54.7578C15.9589 54.8695 16.0896 54.9581 16.2338 55.0185C16.378 55.0789 16.5329 55.1098 16.6893 55.1094H20.1007Z" fill="black"/>
</svg>
