<svg width="81" height="81" viewBox="0 0 81 81" fill="none" xmlns="http://www.w3.org/2000/svg">
<path fill-rule="evenodd" clip-rule="evenodd" d="M64.9662 18.4971H44.1029L50.1423 12.3792H64.9662V18.4971ZM44.1001 8.48128L34.4294 18.278H12.6679C10.2274 18.278 8.24905 20.2563 8.24905 22.6968V69.4145C8.24905 71.855 10.2274 73.8334 12.6679 73.8334H67.9018C70.3426 73.8334 72.321 71.855 72.321 69.4145V11.5859C72.321 9.14536 70.3426 7.16699 67.9018 7.16699H47.2449C46.063 7.16699 44.9304 7.64022 44.1001 8.48128Z" fill="#2A2A2A"/>
<path fill-rule="evenodd" clip-rule="evenodd" d="M30.5162 14.6946H13.2183V11.5858C13.2183 9.14533 15.1966 7.16669 17.6371 7.16669H26.0973C28.5378 7.16669 30.5162 9.14533 30.5162 11.5858V14.6946Z" fill="#2A2A2A"/>
<path fill-rule="evenodd" clip-rule="evenodd" d="M31.7015 47.3415L40.2849 30.8397L48.8685 47.3415C51.3345 52.0821 49.4904 57.924 44.7501 60.39C40.0094 62.8561 34.1672 61.0117 31.7015 56.271C30.1991 53.3828 30.324 50.0347 31.7015 47.3415Z" fill="white"/>
</svg>
