<svg width="81" height="81" viewBox="0 0 81 81" fill="none" xmlns="http://www.w3.org/2000/svg">
<path d="M24.1387 23.4169L15.5325 14.8104C8.95809 21.3853 4.8919 30.4674 4.8919 40.4996C4.8919 50.5321 8.95837 59.6144 15.5325 66.1888L24.1387 57.5823C14.7191 48.1633 14.7191 32.8368 24.1387 23.4169ZM41.222 25.2962C32.8254 25.2962 26.018 32.103 26.018 40.4996C26.018 48.8964 32.8251 55.7033 41.222 55.7033C49.6197 55.7033 56.426 48.8964 56.426 40.4996C56.426 32.103 49.6197 25.2962 41.222 25.2962ZM41.222 28.8234C42.5677 28.8234 43.6588 29.9147 43.6588 31.2608C43.6588 32.6066 42.5677 33.6979 41.222 33.6979C39.8762 33.6979 38.7852 32.6066 38.7852 31.2608C38.7852 29.9147 39.8762 28.8234 41.222 28.8234ZM34.4388 47.2296C33.2729 47.9022 31.7827 47.503 31.11 46.3377C30.4374 45.1718 30.8362 43.6813 32.002 43.0089C33.1678 42.336 34.6581 42.7348 35.3307 43.8997C36.0034 45.0659 35.6046 46.5565 34.4388 47.2296ZM35.3316 37.0983C34.6584 38.2641 33.1678 38.6634 32.002 37.9905C30.8362 37.3176 30.4369 35.8273 31.11 34.6615C31.7832 33.4965 33.2738 33.0969 34.4388 33.7698C35.6046 34.4427 36.0042 35.9333 35.3316 37.0983ZM41.222 52.1761C39.8753 52.1755 38.7846 51.0848 38.7846 49.7393C38.7852 48.3926 39.8753 47.3016 41.2205 47.3016C42.5672 47.3022 43.6582 48.3929 43.6588 49.739C43.6582 51.0848 42.5672 52.1761 41.222 52.1761ZM41.222 44.5686C38.9751 44.5686 37.1532 42.7467 37.1532 40.4999C37.1532 38.253 38.9751 36.4314 41.222 36.4314C43.4697 36.4314 45.2907 38.253 45.2907 40.4999C45.2907 42.7467 43.4697 44.5686 41.222 44.5686ZM51.3339 46.3371C50.6607 47.5035 49.1701 47.9028 48.0051 47.2302C46.8387 46.5565 46.4391 45.0667 47.1118 43.9017C47.7858 42.7359 49.2764 42.3366 50.4414 43.0089C51.6069 43.6824 52.0065 45.173 51.3339 46.3371ZM50.4425 37.9908C49.2752 38.6637 47.7855 38.2647 47.1123 37.0997C46.4403 35.9336 46.8399 34.443 48.0043 33.7704C49.1707 33.0972 50.6613 33.4965 51.3336 34.6615C52.0071 35.8273 51.6078 37.3179 50.4425 37.9908ZM41.222 7.16669C32.5309 7.16669 24.6179 10.4937 18.6839 15.9428L25.1483 22.4075C25.7061 22.965 25.7061 23.8693 25.1483 24.4271C20.8622 28.7132 18.5019 34.421 18.5019 40.4999C18.5019 46.5787 20.8625 52.2872 25.1483 56.573C25.7061 57.1305 25.7061 58.0347 25.1483 58.5925L18.6839 65.0572C24.6176 70.5057 32.5307 73.8334 41.222 73.8334C59.6316 73.8334 74.5557 58.9095 74.5557 40.4999C74.5557 22.0905 59.6313 7.16669 41.222 7.16669ZM41.222 57.1316C32.0511 57.1316 24.5899 49.6707 24.5899 40.4999C24.5899 31.3293 32.0511 23.8684 41.222 23.8684C50.3928 23.8684 57.854 31.3293 57.854 40.4999C57.854 49.6707 50.3928 57.1316 41.222 57.1316Z" fill="#2A2A2A"/>
</svg>
