<svg width="81" height="81" viewBox="0 0 81 81" fill="none" xmlns="http://www.w3.org/2000/svg">
<path d="M32.854 18.9701V3.99611H12.6261V7.17971L13.7785 7.54429C14.3531 8.16893 15.1214 8.58176 15.9594 8.71617C17.535 9.01565 16.9295 8.46877 18.0818 9.65367C19.0918 10.7345 20.4352 11.4451 21.8969 11.6719C23.505 11.9193 22.7303 11.444 23.7199 12.7396C24.2955 13.5339 25.0702 14.1626 25.966 14.5625C28.466 15.6172 27.5415 14.3477 29.4165 16.5156C29.7472 16.8922 30.1472 17.2017 30.5949 17.4271C31.4096 17.8387 32.1669 18.3552 32.8475 18.9636L32.854 18.9701ZM65.9269 43C66.2263 43.0039 66.5179 43.0963 66.7649 43.2656C67.0119 43.4349 67.2033 43.6735 67.3149 43.9514C67.4266 44.2292 67.4535 44.5339 67.3922 44.8271C67.331 45.1202 67.1843 45.3886 66.9708 45.5986C66.7572 45.8085 66.4863 45.9505 66.1922 46.0068C65.898 46.063 65.5938 46.0309 65.3179 45.9145C65.042 45.7982 64.8067 45.6028 64.6416 45.3529C64.4766 45.103 64.3892 44.8099 64.3904 44.5104C64.3921 44.3104 64.4332 44.1126 64.5114 43.9284C64.5895 43.7442 64.7032 43.5773 64.8458 43.437C64.9885 43.2967 65.1574 43.186 65.3429 43.111C65.5284 43.036 65.7268 42.9983 65.9269 43ZM74.6704 42.8503C74.9698 42.8541 75.2614 42.9465 75.5084 43.1158C75.7554 43.2851 75.9468 43.5238 76.0584 43.8016C76.1701 44.0795 76.1969 44.3842 76.1357 44.6773C76.0744 44.9705 75.9278 45.2389 75.7143 45.4488C75.5007 45.6588 75.2298 45.8008 74.9357 45.857C74.6415 45.9133 74.3373 45.8812 74.0614 45.7648C73.7855 45.6484 73.5502 45.453 73.3851 45.2032C73.2201 44.9533 73.1327 44.6602 73.1339 44.3607C73.1348 44.1604 73.1753 43.9622 73.2531 43.7777C73.3309 43.5931 73.4446 43.4257 73.5874 43.2853C73.7303 43.1449 73.8995 43.0342 74.0854 42.9595C74.2713 42.8848 74.4701 42.8477 74.6704 42.8503ZM74.5011 48.5534C74.8003 48.5573 75.0916 48.6495 75.3385 48.8185C75.5854 48.9875 75.7767 49.2257 75.8886 49.5032C76.0004 49.7807 76.0277 50.0851 75.9669 50.3781C75.9062 50.671 75.7602 50.9395 75.5473 51.1497C75.3344 51.3599 75.0641 51.5024 74.7704 51.5594C74.4767 51.6164 74.1727 51.5852 73.8967 51.4698C73.6206 51.3545 73.3848 51.16 73.219 50.911C73.0532 50.662 72.9647 50.3695 72.9647 50.0703C72.9681 49.6657 73.1317 49.2789 73.4196 48.9946C73.7076 48.7103 74.0965 48.5517 74.5011 48.5534ZM70.2563 45.8776C70.5563 45.8815 70.8484 45.9743 71.0957 46.1442C71.3429 46.314 71.5343 46.5534 71.6455 46.8321C71.7567 47.1107 71.7828 47.4161 71.7205 47.7095C71.6582 48.003 71.5102 48.2714 71.2954 48.4808C71.0805 48.6902 70.8084 48.8311 70.5135 48.8859C70.2185 48.9406 69.9139 48.9067 69.6382 48.7883C69.3625 48.67 69.1282 48.4725 68.9647 48.221C68.8012 47.9694 68.716 47.675 68.7199 47.375C68.7216 47.175 68.7627 46.9772 68.8408 46.793C68.9189 46.6088 69.0326 46.4418 69.1753 46.3016C69.3179 46.1613 69.4868 46.0505 69.6723 45.9756C69.8578 45.9006 70.0563 45.8629 70.2563 45.8646V45.8776ZM74.6704 37.2383C74.9695 37.2422 75.2609 37.3344 75.5078 37.5034C75.7546 37.6724 75.946 37.9106 76.0578 38.1881C76.1697 38.4656 76.1969 38.77 76.1362 39.063C76.0755 39.3559 75.9295 39.6244 75.7166 39.8346C75.5037 40.0448 75.2334 40.1873 74.9397 40.2443C74.646 40.3012 74.342 40.2701 74.0659 40.1547C73.7899 40.0394 73.5541 39.8449 73.3883 39.5959C73.2224 39.3469 73.1339 39.0544 73.1339 38.7552C73.1348 38.5546 73.1752 38.3561 73.253 38.1712C73.3307 37.9863 73.4443 37.8185 73.587 37.6776C73.7298 37.5366 73.899 37.4253 74.0849 37.3499C74.2708 37.2745 74.4698 37.2366 74.6704 37.2383ZM70.3084 40.1159C70.6076 40.1198 70.8989 40.212 71.1458 40.381C71.3926 40.55 71.584 40.7882 71.6959 41.0657C71.8077 41.3432 71.8349 41.6476 71.7742 41.9406C71.7135 42.2335 71.5675 42.502 71.3546 42.7122C71.1417 42.9224 70.8714 43.0649 70.5777 43.1219C70.284 43.1788 69.98 43.1477 69.7039 43.0323C69.4279 42.917 69.1921 42.7225 69.0263 42.4735C68.8605 42.2245 68.772 41.932 68.7719 41.6328C68.7754 41.2282 68.939 40.8414 69.2269 40.5571C69.5149 40.2728 69.9038 40.1142 70.3084 40.1159ZM53.1209 37.9284L56.923 37.8698L56.962 40.3242L63.2837 43.0391L63.3357 46.6198L57.0923 50.2136L57.1313 52.8177L53.3292 52.8763L53.1144 37.9024L53.1209 37.9284ZM48.7589 37.8959H51.6691V52.7461H48.7524V52.2188L37.8475 54.4258C37.8864 54.3194 37.9062 54.207 37.9061 54.0938V47.668C37.8858 47.4169 37.7717 47.1826 37.5865 47.0118C37.4013 46.841 37.1586 46.7461 36.9067 46.7461C36.6548 46.7461 36.4121 46.841 36.2269 47.0118C36.0417 47.1826 35.9276 47.4169 35.9074 47.668V54.0938C35.9158 54.3345 36.0079 54.5647 36.1678 54.7448L33.6808 55.2461C29.8527 55.3698 26.9686 57.056 26.1287 62.1146L22.9126 73.8985C24.423 76.099 24.7811 77.8568 23.7719 79.1068C22.3071 80.9037 19.7029 80.4089 17.6522 80.4089H8.06231C5.45814 80.181 4.46205 78.4557 4.60528 75.6367C4.60528 72.6615 5.10658 71.2617 6.36309 68.4753C7.01847 67.0218 7.79828 65.6277 8.69382 64.3086C11.0376 60.3503 12.6326 56.8932 12.7954 54.543C13.2316 48.4883 4.55319 55.9948 4.55319 45.3568V40.9557C4.55491 40.3312 4.80376 39.7328 5.24537 39.2912C5.68698 38.8496 6.28544 38.6007 6.90996 38.599H18.2251V30.7865C15.8938 30.5637 13.7134 29.5345 12.0597 27.8763C11.1248 26.9448 10.3831 25.8378 9.87695 24.6189C9.37086 23.4 9.11039 22.0932 9.11048 20.7735V4.00914H6.63653C6.18966 3.9819 5.77003 3.78519 5.46325 3.45914C5.15646 3.13309 4.98564 2.70227 4.98564 2.25458C4.98564 1.80689 5.15646 1.37607 5.46325 1.05001C5.77003 0.723963 6.18966 0.527253 6.63653 0.50002H38.837C39.0764 0.485431 39.3163 0.519988 39.5419 0.601565C39.7674 0.683142 39.9739 0.810013 40.1485 0.97437C40.3232 1.13873 40.4624 1.33709 40.5576 1.55726C40.6527 1.77742 40.7018 2.01473 40.7018 2.25458C40.7018 2.49442 40.6527 2.73173 40.5576 2.9519C40.4624 3.17206 40.3232 3.37043 40.1485 3.53479C39.9739 3.69914 39.7674 3.82601 39.5419 3.90759C39.3163 3.98917 39.0764 4.02372 38.837 4.00914H36.3566V20.7735C36.3558 22.0937 36.0943 23.4008 35.5871 24.6197C35.0799 25.8386 34.3369 26.9453 33.4009 27.8763C31.7488 29.5331 29.5709 30.5622 27.242 30.7865V38.599H48.7524V37.8959H48.7589ZM31.1222 68.8985L33.0232 63.4167C33.5831 61.7956 33.0232 59.9531 31.8579 59.3737L29.768 58.306C29.0193 60.6888 27.3592 65.4219 26.617 67.8047L30.0805 69.5625C30.4777 69.7643 30.9269 69.4649 31.1222 68.9115V68.8985Z" fill="black"/>
</svg>
