<svg width="81" height="81" viewBox="0 0 81 81" fill="none" xmlns="http://www.w3.org/2000/svg">
<path fill-rule="evenodd" clip-rule="evenodd" d="M71.1933 50.7769C71.1829 52.046 69.9761 53.0657 68.5805 53.0544L58.6071 52.9738C57.8153 52.9678 57.2045 52.241 57.2123 51.3513L57.2297 49.1812C57.2366 48.2907 57.8595 47.4729 58.653 47.3491L68.6386 45.7898C70.0368 45.5714 71.2279 46.4126 71.2184 47.6826L71.1933 50.7769ZM73.7982 35.7539C77.3161 34.6918 79.2713 32.0826 78.9387 30.164C78.7646 29.1614 77.9104 28.0309 76.6941 27.6336C75.1201 27.1196 73.8138 28.1189 73.6596 28.2411C73.21 29.1327 72.7595 30.0244 72.3099 30.9157L70.0913 20.9306C69.1748 16.8155 66.945 13.1997 63.026 13.1681C49.9893 13.0725 36.9535 12.9768 23.9168 12.881C19.9969 12.8496 17.9681 16.5028 16.7328 20.5358L13.5882 30.758L12.1311 27.7445C12.0678 27.6854 10.5804 26.3413 8.85479 27C7.68531 27.4464 6.9715 28.5971 6.81557 29.5637C6.53056 31.3229 7.92354 33.5059 10.4678 34.6563C12.4195 33.7147 14.5523 33.0901 16.7995 32.8432L19.6989 22.7141C20.0099 21.6586 20.4326 20.6452 20.9585 19.6938V19.7154C21.3214 19.2204 21.6835 18.7254 22.0465 18.2305C22.8816 17.3445 24.0112 16.8592 25.1799 16.8841L61.2925 17.1756C64.2821 17.1997 66.0735 19.943 66.6791 23.0933L68.9011 33.4522L22.678 33.0788C31.709 34.8174 38.5319 42.7612 38.5319 52.299C38.5319 56.3705 37.2887 60.1518 35.1612 63.2834L64.3332 63.5191L64.3176 65.4578C64.3141 66.7858 65.3017 67.8678 66.5301 67.8817L76.0366 67.9579C77.265 67.964 78.2699 66.8984 78.2881 65.5704L78.3227 61.2624C79.1656 48.2561 79.6525 43.0038 74.959 37.7022L73.7982 35.7539Z" fill="#2A2A2A"/>
<path fill-rule="evenodd" clip-rule="evenodd" d="M18.8855 47.9C16.3949 47.9 14.3748 49.9202 14.3748 52.4108C14.3748 54.9013 16.3949 56.9215 18.8855 56.9215C21.376 56.9215 23.3962 54.9013 23.3962 52.4108C23.3962 49.9202 21.376 47.9 18.8855 47.9Z" fill="#2A2A2A"/>
<path fill-rule="evenodd" clip-rule="evenodd" d="M30.1879 53.8479C30.1879 54.4517 29.6932 54.9455 29.0894 54.9455H27.2425C27.0164 55.6931 26.6924 56.3982 26.2853 57.0462L27.4833 58.2434C27.9104 58.6714 27.9104 59.3696 27.4833 59.7967L25.8617 61.4183C25.4346 61.8454 24.7355 61.8454 24.3093 61.4183L23.0021 60.112C22.3298 60.4732 21.6039 60.7478 20.8407 60.9228V62.6155C20.8407 63.2185 20.346 63.7131 19.7422 63.7131H17.4483C16.8445 63.7131 16.3508 63.2185 16.3508 62.6155V60.7686C15.6032 60.5417 14.898 60.2177 14.25 59.8105L13.052 61.0086C12.6249 61.4357 11.9267 61.4357 11.4996 61.0086L9.87703 59.3869C9.44996 58.9598 9.44996 58.2607 9.87703 57.8345L11.1834 56.5273C10.823 55.8551 10.5475 55.1291 10.3734 54.3659H8.6807C8.0769 54.3659 7.58312 53.8722 7.58312 53.2684V50.9736C7.58312 50.3698 8.0769 49.876 8.6807 49.876H10.5276C10.7537 49.1284 11.0777 48.4233 11.4849 47.7753L10.2868 46.5781C9.85971 46.151 9.85971 45.4519 10.2868 45.0248L11.9093 43.4032C12.3364 42.9761 13.0346 42.9761 13.4617 43.4032L14.7681 44.7095C15.4412 44.3483 16.1662 44.0737 16.9303 43.8987V42.2068C16.9303 41.6022 17.4241 41.1084 18.0279 41.1084H20.3218C20.9256 41.1084 21.4202 41.6022 21.4202 42.2068V44.0529C22.1678 44.279 22.873 44.603 23.521 45.0101L24.7182 43.8129C25.1461 43.3858 25.8443 43.3858 26.2714 43.8129L27.8931 45.4346C28.3202 45.8617 28.3202 46.5607 27.8931 46.987L26.5867 48.2933C26.9471 48.9664 27.2226 49.6924 27.3976 50.4555H29.0894C29.6932 50.4555 30.1879 50.9493 30.1879 51.5531V53.8479ZM18.9574 36.1273C10.0252 36.1273 2.78479 43.3676 2.78479 52.299C2.78479 61.2312 10.0252 68.4716 18.9574 68.4716C27.8888 68.4716 35.1291 61.2312 35.1291 52.299C35.1291 43.3676 27.8888 36.1273 18.9574 36.1273Z" fill="#2A2A2A"/>
</svg>
