<svg width="17" height="17" viewBox="0 0 17 17" fill="none" xmlns="http://www.w3.org/2000/svg">
<g clip-path="url(#clip0_1_375)">
<path d="M16.185 7.86L14.3725 7.4225C14.2475 6.83917 14.0183 6.27667 13.685 5.735L14.6225 4.1725C14.7058 4.08917 14.7371 3.985 14.7162 3.86C14.6954 3.735 14.6433 3.63083 14.56 3.5475L13.8725 2.86C13.7892 2.77667 13.685 2.72458 13.56 2.70375C13.435 2.68292 13.3308 2.71417 13.2475 2.7975L11.685 3.735C11.1433 3.40167 10.5808 3.1725 9.9975 3.0475L9.56 1.235C9.51833 1.11 9.45583 1.01625 9.3725 0.953751C9.28916 0.891251 9.185 0.860001 9.06 0.860001H8.06C7.935 0.860001 7.83083 0.891251 7.7475 0.953751C7.66416 1.01625 7.60166 1.11 7.56 1.235L7.1225 3.0475C6.53916 3.1725 5.97666 3.40167 5.435 3.735L3.8725 2.7975C3.78916 2.71417 3.685 2.68292 3.56 2.70375C3.435 2.72458 3.33083 2.77667 3.2475 2.86L2.56 3.5475C2.47666 3.63083 2.42458 3.735 2.40375 3.86C2.38291 3.985 2.41416 4.08917 2.4975 4.1725L3.435 5.735C3.10166 6.27667 2.8725 6.83917 2.7475 7.4225L0.934998 7.86C0.809998 7.90167 0.716248 7.96417 0.653748 8.0475C0.591248 8.13083 0.559998 8.235 0.559998 8.36V9.36C0.559998 9.485 0.591248 9.58917 0.653748 9.6725C0.716248 9.75583 0.809998 9.81833 0.934998 9.86L2.7475 10.2975C2.8725 10.8808 3.10166 11.4433 3.435 11.985L2.4975 13.5475C2.41416 13.6308 2.38291 13.735 2.40375 13.86C2.42458 13.985 2.47666 14.0892 2.56 14.1725L3.2475 14.86C3.33083 14.9433 3.435 14.9954 3.56 15.0163C3.685 15.0371 3.78916 15.0058 3.8725 14.9225L5.435 13.985C5.97666 14.3183 6.53916 14.5475 7.1225 14.6725L7.56 16.485C7.60166 16.61 7.66416 16.7038 7.7475 16.7663C7.83083 16.8288 7.935 16.86 8.06 16.86H9.06C9.185 16.86 9.28916 16.8288 9.3725 16.7663C9.45583 16.7038 9.51833 16.61 9.56 16.485L9.9975 14.6725C10.5808 14.5475 11.1433 14.3183 11.685 13.985L13.2475 14.9225C13.3308 15.0058 13.435 15.0371 13.56 15.0163C13.685 14.9954 13.7892 14.9433 13.8725 14.86L14.56 14.1725C14.6433 14.0892 14.6954 13.985 14.7162 13.86C14.7371 13.735 14.7058 13.6308 14.6225 13.5475L13.685 11.985C14.0183 11.4433 14.2475 10.8808 14.3725 10.2975L16.185 9.86C16.31 9.81833 16.4037 9.75583 16.4662 9.6725C16.5287 9.58917 16.56 9.485 16.56 9.36V8.36C16.56 8.235 16.5287 8.13083 16.4662 8.0475C16.4037 7.96417 16.31 7.90167 16.185 7.86ZM8.56 11.86C7.72666 11.86 7.01833 11.5683 6.435 10.985C5.85166 10.4017 5.56 9.69333 5.56 8.86C5.56 8.02667 5.85166 7.31833 6.435 6.735C7.01833 6.15167 7.72666 5.86 8.56 5.86C9.39333 5.86 10.1017 6.15167 10.685 6.735C11.2683 7.31833 11.56 8.02667 11.56 8.86C11.56 9.69333 11.2683 10.4017 10.685 10.985C10.1017 11.5683 9.39333 11.86 8.56 11.86Z" fill="#BB0A07"/>
</g>
<defs>
<clipPath id="clip0_1_375">
<rect width="16" height="16" fill="white" transform="matrix(1 0 0 -1 0.559998 16.86)"/>
</clipPath>
</defs>
</svg>
