<svg width="17" height="17" viewBox="0 0 17 17" fill="none" xmlns="http://www.w3.org/2000/svg">
<g clip-path="url(#clip0_1_369)">
<path d="M6.4975 8.1725C6.28916 7.96417 6.06 7.86 5.81 7.86C5.56 7.86 5.33083 7.96417 5.1225 8.1725C4.91416 8.38083 4.81 8.61 4.81 8.86C4.81 9.11 4.91416 9.33917 5.1225 9.5475L7.1225 11.5475C7.33083 11.7558 7.56 11.86 7.81 11.86C8.06 11.86 8.28916 11.7558 8.4975 11.5475L15.4975 4.5475C15.7058 4.33917 15.81 4.11 15.81 3.86C15.81 3.61 15.7058 3.38083 15.4975 3.1725C15.2892 2.96417 15.06 2.86 14.81 2.86C14.56 2.86 14.3308 2.96417 14.1225 3.1725L7.81 9.485L6.4975 8.1725ZM7.81 16.86C9.10166 16.86 10.2787 16.5475 11.3412 15.9225C12.4037 15.2975 13.2475 14.4538 13.8725 13.3913C14.4975 12.3288 14.81 11.1517 14.81 9.86C14.81 9.56833 14.7162 9.32875 14.5287 9.14125C14.3412 8.95375 14.1017 8.86 13.81 8.86C13.5183 8.86 13.2787 8.95375 13.0912 9.14125C12.9037 9.32875 12.81 9.56833 12.81 9.86C12.81 10.7767 12.5912 11.6204 12.1537 12.3913C11.7162 13.1621 11.1121 13.7663 10.3412 14.2038C9.57041 14.6413 8.72666 14.86 7.81 14.86C6.89333 14.86 6.04958 14.6413 5.27875 14.2038C4.50791 13.7663 3.90375 13.1621 3.46625 12.3913C3.02875 11.6204 2.81 10.7767 2.81 9.86C2.81 8.94333 3.02875 8.09958 3.46625 7.32875C3.90375 6.55792 4.50791 5.95375 5.27875 5.51625C6.04958 5.07875 6.89333 4.86 7.81 4.86C8.35166 4.86 8.91416 4.96417 9.4975 5.1725C9.7475 5.25583 10.0079 5.235 10.2787 5.11C10.5496 4.985 10.7267 4.7975 10.81 4.5475C10.8933 4.2975 10.8725 4.0475 10.7475 3.7975C10.6225 3.5475 10.435 3.36 10.185 3.235C9.47666 2.985 8.685 2.86 7.81 2.86C6.51833 2.86 5.34125 3.1725 4.27875 3.7975C3.21625 4.4225 2.3725 5.26625 1.7475 6.32875C1.1225 7.39125 0.809998 8.56833 0.809998 9.86C0.809998 11.1517 1.1225 12.3288 1.7475 13.3913C2.3725 14.4538 3.21625 15.2975 4.27875 15.9225C5.34125 16.5475 6.51833 16.86 7.81 16.86Z" fill="#BB0A07"/>
</g>
<defs>
<clipPath id="clip0_1_369">
<rect width="16" height="16" fill="white" transform="matrix(1 0 0 -1 0.809998 16.86)"/>
</clipPath>
</defs>
</svg>
