<svg width="28" height="28" viewBox="0 0 28 28" fill="none" xmlns="http://www.w3.org/2000/svg">
<path d="M27.5625 13.72C27.5625 21.2104 21.4904 27.2825 14 27.2825C6.50962 27.2825 0.4375 21.2104 0.4375 13.72C0.4375 6.22959 6.50962 0.157471 14 0.157471C21.4904 0.157471 27.5625 6.22959 27.5625 13.72ZM12.4312 20.9012L22.4937 10.8387C22.8354 10.497 22.8354 9.94298 22.4937 9.60129L21.2563 8.36388C20.9146 8.02213 20.3606 8.02213 20.0189 8.36388L11.8125 16.5702L7.98115 12.7388C7.63946 12.3971 7.08542 12.3971 6.74368 12.7388L5.50627 13.9762C5.16458 14.3179 5.16458 14.872 5.50627 15.2136L11.1938 20.9011C11.5355 21.2429 12.0895 21.2429 12.4312 20.9012Z" fill="#D80000"/>
</svg>
