<svg width="65" height="65" viewBox="0 0 65 65" fill="none" xmlns="http://www.w3.org/2000/svg">
<path d="M34.539 37.1851C35.7735 36.7013 36.7653 35.7469 37.2962 34.5319C37.8271 33.3168 37.8536 31.9407 37.37 30.7061C36.37 28.1391 25.784 14.8391 25.784 14.8391C25.784 14.8391 27.054 31.7871 28.06 34.3541C28.5438 35.5886 29.4982 36.5804 30.7132 37.1113C31.9283 37.6422 33.3044 37.6688 34.539 37.1851Z" fill="#BB0A07"/>
<path d="M32.72 15.53C32.9852 15.53 33.2395 15.4247 33.4271 15.2371C33.6146 15.0496 33.72 14.7952 33.72 14.53V10.53C33.72 10.2648 33.6146 10.0105 33.4271 9.82292C33.2395 9.63539 32.9852 9.53003 32.72 9.53003C32.4548 9.53003 32.2004 9.63539 32.0129 9.82292C31.8253 10.0105 31.72 10.2648 31.72 10.53V14.53C31.72 14.7952 31.8253 15.0496 32.0129 15.2371C32.2004 15.4247 32.4548 15.53 32.72 15.53Z" fill="#BB0A07"/>
<path d="M45.448 20.802C45.7132 20.8019 45.9675 20.6965 46.155 20.509L48.983 17.681C49.0785 17.5887 49.1547 17.4784 49.2071 17.3564C49.2595 17.2344 49.2871 17.1031 49.2882 16.9704C49.2894 16.8376 49.2641 16.7059 49.2138 16.583C49.1635 16.4601 49.0893 16.3485 48.9954 16.2546C48.9015 16.1607 48.7898 16.0864 48.667 16.0361C48.5441 15.9859 48.4124 15.9606 48.2796 15.9617C48.1468 15.9629 48.0156 15.9904 47.8936 16.0429C47.7716 16.0953 47.6612 16.1714 47.569 16.267L44.741 19.095C44.6012 19.2348 44.506 19.413 44.4674 19.6069C44.4288 19.8009 44.4486 20.0019 44.5243 20.1846C44.6 20.3673 44.7281 20.5235 44.8925 20.6334C45.057 20.7432 45.2502 20.8019 45.448 20.802Z" fill="#BB0A07"/>
<path d="M50.72 33.53H54.72C54.9852 33.53 55.2395 33.4247 55.4271 33.2371C55.6146 33.0496 55.72 32.7952 55.72 32.53C55.72 32.2648 55.6146 32.0105 55.4271 31.8229C55.2395 31.6354 54.9852 31.53 54.72 31.53H50.72C50.4548 31.53 50.2004 31.6354 50.0129 31.8229C49.8253 32.0105 49.72 32.2648 49.72 32.53C49.72 32.7952 49.8253 33.0496 50.0129 33.2371C50.2004 33.4247 50.4548 33.53 50.72 33.53Z" fill="#BB0A07"/>
<path d="M19.285 20.509C19.4736 20.6911 19.7262 20.7919 19.9884 20.7896C20.2506 20.7874 20.5014 20.6822 20.6868 20.4968C20.8722 20.3114 20.9774 20.0606 20.9797 19.7984C20.9819 19.5362 20.8811 19.2836 20.699 19.095L17.871 16.267C17.7787 16.1714 17.6684 16.0953 17.5464 16.0429C17.4244 15.9904 17.2932 15.9629 17.1604 15.9617C17.0276 15.9606 16.8959 15.9859 16.773 16.0361C16.6501 16.0864 16.5385 16.1607 16.4446 16.2546C16.3507 16.3485 16.2765 16.4601 16.2262 16.583C16.1759 16.7059 16.1506 16.8376 16.1517 16.9704C16.1529 17.1031 16.1805 17.2344 16.2329 17.3564C16.2853 17.4784 16.3615 17.5887 16.457 17.681L19.285 20.509Z" fill="#BB0A07"/>
<path d="M10.72 33.53H14.72C14.9852 33.53 15.2395 33.4247 15.4271 33.2371C15.6146 33.0496 15.72 32.7952 15.72 32.53C15.72 32.2648 15.6146 32.0105 15.4271 31.8229C15.2395 31.6354 14.9852 31.53 14.72 31.53H10.72C10.4548 31.53 10.2004 31.6354 10.0129 31.8229C9.82533 32.0105 9.71997 32.2648 9.71997 32.53C9.71997 32.7952 9.82533 33.0496 10.0129 33.2371C10.2004 33.4247 10.4548 33.53 10.72 33.53Z" fill="#BB0A07"/>
<path d="M32.72 2.53003C26.7865 2.53003 20.9864 4.2895 16.0529 7.58594C11.1194 10.8824 7.27423 15.5677 5.0036 21.0495C2.73297 26.5313 2.13887 32.5633 3.29643 38.3827C4.45398 44.2022 7.31121 49.5477 11.5068 53.7432C15.7024 57.9388 21.0478 60.796 26.8673 61.9536C32.6867 63.1111 38.7187 62.517 44.2005 60.2464C49.6823 57.9758 54.3676 54.1306 57.6641 49.1971C60.9605 44.2637 62.72 38.4635 62.72 32.53C62.711 24.5763 59.5474 16.9509 53.9233 11.3268C48.2991 5.70262 40.6737 2.53903 32.72 2.53003ZM32.72 4.53003C37.351 4.52924 41.9098 5.6773 45.9881 7.87135C50.0664 10.0654 53.5367 13.2369 56.088 17.1017C58.6394 20.9665 60.1921 25.4039 60.6071 30.0162C61.0221 34.6286 60.2865 39.2719 58.466 43.53H6.97398C5.15351 39.2719 4.41783 34.6286 4.83284 30.0162C5.24785 25.4039 6.8006 20.9665 9.35196 17.1017C11.9033 13.2369 15.3736 10.0654 19.4519 7.87135C23.5301 5.6773 28.089 4.52924 32.72 4.53003Z" fill="#9B9B9C"/>
</svg>
