<svg width="65" height="65" viewBox="0 0 65 65" fill="none" xmlns="http://www.w3.org/2000/svg">
<path d="M63.096 32.03L48.096 6.03003C47.917 5.72103 47.587 5.53003 47.23 5.53003H17.23C16.873 5.53003 16.542 5.72103 16.364 6.03003L1.36399 32.03C1.18499 32.339 1.18499 32.72 1.36399 33.029L16.364 59.029C16.542 59.339 16.873 59.53 17.23 59.53H47.23C47.587 59.53 47.917 59.339 48.096 59.03L63.096 33.03C63.275 32.72 63.275 32.34 63.096 32.03ZM32.23 43.53C26.165 43.53 21.23 38.595 21.23 32.53C21.23 26.465 26.165 21.53 32.23 21.53C38.295 21.53 43.23 26.465 43.23 32.53C43.23 38.595 38.295 43.53 32.23 43.53Z" fill="#9B9B9C"/>
</svg>
