<svg width="33" height="33" viewBox="0 0 33 33" fill="none" xmlns="http://www.w3.org/2000/svg">
<path d="M26.417 13.217C26.876 14.488 27.14 15.852 27.14 17.28C27.14 23.897 21.757 29.28 15.14 29.28C8.52301 29.28 3.14001 23.897 3.14001 17.28C3.14001 10.663 8.52301 5.28003 15.14 5.28003C17.779 5.28003 20.214 6.14703 22.198 7.59603L23.752 6.26403C21.373 4.40203 18.388 3.28003 15.14 3.28003C7.42001 3.28003 1.14001 9.56003 1.14001 17.28C1.14001 25 7.42001 31.28 15.14 31.28C22.86 31.28 29.14 25 29.14 17.28C29.14 15.261 28.702 13.345 27.929 11.61L26.417 13.217Z" fill="#BB0A07"/>
<path d="M29.14 4.28003L15.14 16.28L9.14001 11.28L7.14001 13.28L15.14 22.28L31.14 5.28003L29.14 4.28003Z" fill="#BB0A07"/>
</svg>
