<svg width="18" height="18" viewBox="0 0 18 18" fill="none" xmlns="http://www.w3.org/2000/svg">
<path d="M9 2.11C10.5 2.11 11.6016 2.11 12.3047 2.11C12.8672 2.15688 13.3828 2.27406 13.8516 2.46156C14.2266 2.55531 14.5547 2.74281 14.8359 3.02406C15.1172 3.30531 15.3047 3.63344 15.3984 4.00844C15.5859 4.47719 15.7031 4.99281 15.75 5.55531C15.75 6.25844 15.75 7.36 15.75 8.86C15.75 10.36 15.75 11.4616 15.75 12.1647C15.7031 12.7272 15.5859 13.2428 15.3984 13.7116C15.3047 14.0866 15.1172 14.4147 14.8359 14.6959C14.5547 14.9772 14.2266 15.1647 13.8516 15.2584C13.3828 15.4459 12.8672 15.5631 12.3047 15.61C11.6016 15.61 10.5 15.61 9 15.61C7.5 15.61 6.39844 15.61 5.69531 15.61C5.13281 15.5631 4.61719 15.4459 4.14844 15.2584C3.77344 15.1647 3.44531 14.9772 3.16406 14.6959C2.88281 14.4147 2.69531 14.0866 2.60156 13.7116C2.41406 13.2428 2.29688 12.7272 2.25 12.1647C2.25 11.4616 2.25 10.36 2.25 8.86C2.25 7.36 2.25 6.25844 2.25 5.55531C2.29688 4.99281 2.41406 4.47719 2.60156 4.00844C2.69531 3.63344 2.88281 3.30531 3.16406 3.02406C3.44531 2.74281 3.77344 2.55531 4.14844 2.46156C4.61719 2.27406 5.13281 2.15688 5.69531 2.11C6.39844 2.11 7.5 2.11 9 2.11ZM9 0.633438C7.45312 0.633438 6.32812 0.645157 5.625 0.668594C4.92188 0.692032 4.26562 0.809219 3.65625 1.02016C3.04688 1.23109 2.53125 1.5475 2.10938 1.96938C1.6875 2.39125 1.37109 2.90688 1.16016 3.51625C0.949219 4.12563 0.832031 4.78188 0.808594 5.485C0.785156 6.18813 0.773438 7.31313 0.773438 8.86C0.773438 10.4069 0.785156 11.5319 0.808594 12.235C0.832031 12.9381 0.949219 13.5944 1.16016 14.2038C1.37109 14.8131 1.6875 15.3288 2.10938 15.7506C2.53125 16.1725 3.04688 16.4889 3.65625 16.6998C4.26562 16.9108 4.92188 17.028 5.625 17.0514C6.32812 17.0748 7.45312 17.0866 9 17.0866C10.5469 17.0866 11.6719 17.0748 12.375 17.0514C13.0781 17.028 13.7344 16.9108 14.3438 16.6998C14.9531 16.4889 15.4688 16.1725 15.8906 15.7506C16.3125 15.3288 16.6289 14.8131 16.8398 14.2038C17.0508 13.5944 17.168 12.9381 17.1914 12.235C17.2148 11.5319 17.2266 10.4069 17.2266 8.86C17.2266 7.31313 17.2148 6.18813 17.1914 5.485C17.168 4.78188 17.0508 4.12563 16.8398 3.51625C16.6289 2.90688 16.3125 2.39125 15.8906 1.96938C15.4688 1.5475 14.9531 1.23109 14.3438 1.02016C13.7344 0.809219 13.0781 0.692032 12.375 0.668594C11.6719 0.645157 10.5469 0.633438 9 0.633438ZM9 4.64125C8.25 4.64125 7.54688 4.82875 6.89062 5.20375C6.23438 5.57875 5.71875 6.09438 5.34375 6.75063C4.96875 7.40688 4.78125 8.11 4.78125 8.86C4.78125 9.61 4.96875 10.3131 5.34375 10.9694C5.71875 11.6256 6.23438 12.1413 6.89062 12.5163C7.54688 12.8913 8.25 13.0788 9 13.0788C9.75 13.0788 10.4531 12.8913 11.1094 12.5163C11.7656 12.1413 12.2812 11.6256 12.6562 10.9694C13.0312 10.3131 13.2188 9.61 13.2188 8.86C13.2188 8.2975 13.1133 7.75844 12.9023 7.24281C12.6914 6.72719 12.3867 6.27016 11.9883 5.87172C11.5898 5.47328 11.1328 5.16859 10.6172 4.95766C10.1016 4.74672 9.5625 4.64125 9 4.64125ZM9 11.6022C8.25 11.6022 7.60547 11.3327 7.06641 10.7936C6.52734 10.2545 6.25781 9.61 6.25781 8.86C6.25781 8.11 6.52734 7.46547 7.06641 6.92641C7.60547 6.38734 8.25 6.11781 9 6.11781C9.75 6.11781 10.3945 6.38734 10.9336 6.92641C11.4727 7.46547 11.7422 8.11 11.7422 8.86C11.7422 9.61 11.4727 10.2545 10.9336 10.7936C10.3945 11.3327 9.75 11.6022 9 11.6022ZM12.4453 4.43031C12.4453 4.71156 12.5391 4.94594 12.7266 5.13344C12.9141 5.32094 13.1367 5.41469 13.3945 5.41469C13.6523 5.41469 13.8867 5.32094 14.0977 5.13344C14.3086 4.94594 14.4141 4.72328 14.4141 4.46547C14.4141 4.20766 14.3086 3.97328 14.0977 3.76234C13.8867 3.55141 13.6523 3.44594 13.3945 3.44594C13.1367 3.44594 12.9141 3.55141 12.7266 3.76234C12.5391 3.97328 12.4453 4.19594 12.4453 4.43031Z" fill="black"/>
</svg>
