<svg width="17" height="17" viewBox="0 0 17 17" fill="none" xmlns="http://www.w3.org/2000/svg">
<path d="M14.14 0.780029H2.14001C1.03689 0.780029 0.140015 1.6769 0.140015 2.78003V11.78C0.140015 12.8832 1.03689 13.78 2.14001 13.78H5.14001V16.405C5.14001 16.6269 5.32126 16.78 5.51501 16.78C5.59001 16.78 5.66814 16.7582 5.73689 16.705L9.64001 13.78H14.14C15.2431 13.78 16.14 12.8832 16.14 11.78V2.78003C16.14 1.6769 15.2431 0.780029 14.14 0.780029ZM14.64 11.78C14.64 12.055 14.415 12.28 14.14 12.28H9.14001L8.74002 12.58L6.64001 14.155V12.28H2.14001C1.86501 12.28 1.64001 12.055 1.64001 11.78V2.78003C1.64001 2.50503 1.86501 2.28003 2.14001 2.28003H14.14C14.415 2.28003 14.64 2.50503 14.64 2.78003V11.78Z" fill="white"/>
</svg>
