<svg width="16" height="17" viewBox="0 0 16 17" fill="none" xmlns="http://www.w3.org/2000/svg">
<path d="M15.4187 0.798751L12.1687 0.048751C11.8156 -0.032499 11.4531 0.151876 11.3093 0.483126L9.80933 3.98313C9.67808 4.28938 9.76558 4.64875 10.025 4.85813L11.9187 6.40813C10.7937 8.805 8.82808 10.7987 6.38121 11.9456L4.83121 10.0519C4.61871 9.7925 4.26246 9.705 3.95621 9.83625L0.456209 11.3363C0.121834 11.4831 -0.0625407 11.8456 0.0187093 12.1988L0.768709 15.4488C0.846834 15.7863 1.14683 16.03 1.49996 16.03C9.50308 16.03 16 9.54563 16 1.53C16 1.18 15.7593 0.876876 15.4187 0.798751Z" fill="white"/>
</svg>
