<svg width="16" height="15" viewBox="0 0 16 15" fill="none" xmlns="http://www.w3.org/2000/svg">
<path d="M10.6875 9.035L9.125 10.535C8.29167 10.0767 7.53125 9.50375 6.84375 8.81625C6.15625 8.12875 5.58333 7.36834 5.125 6.535L6.625 4.9725C6.75 4.88917 6.82292 4.77459 6.84375 4.62875C6.86458 4.48292 6.85417 4.3475 6.8125 4.2225L5.1875 0.472504C5.10417 0.347504 4.98958 0.243337 4.84375 0.160004C4.69792 0.0766706 4.54167 0.0558367 4.375 0.0975037L1.4375 0.910004C1.27083 0.951671 1.14583 1.035 1.0625 1.16C0.979167 1.285 0.9375 1.41 0.9375 1.535C1.02083 3.285 1.40625 4.94125 2.09375 6.50375C2.78125 8.06625 3.73958 9.46209 4.96875 10.6913C6.19792 11.9204 7.59375 12.8788 9.15625 13.5663C10.7188 14.2538 12.375 14.6392 14.125 14.7225C14.25 14.7225 14.3854 14.6808 14.5312 14.5975C14.6771 14.5142 14.75 14.3892 14.75 14.2225L15.5625 11.285C15.6042 11.1183 15.5833 10.9621 15.5 10.8163C15.4167 10.6704 15.3125 10.5558 15.1875 10.4725L11.4375 8.8475C11.3125 8.80584 11.1771 8.79542 11.0312 8.81625C10.8854 8.83709 10.7708 8.91 10.6875 9.035Z" fill="black"/>
</svg>
