<svg width="65" height="65" viewBox="0 0 65 65" fill="none" xmlns="http://www.w3.org/2000/svg">
<path d="M8.18994 15.311C9.57494 42.684 25.7899 53.742 32.0899 57.012C38.3849 53.74 54.6059 42.677 55.9959 15.312L32.0899 8.71704L8.18994 15.311ZM32.9899 19.088L36.0069 25.2L42.7509 26.18C42.9355 26.2068 43.1089 26.2847 43.2516 26.4049C43.3942 26.5251 43.5004 26.6828 43.5581 26.8601C43.6158 27.0375 43.6228 27.2274 43.5783 27.4086C43.5337 27.5897 43.4394 27.7547 43.3059 27.885L38.4249 32.643L39.5769 39.361C39.6084 39.5449 39.5879 39.734 39.5176 39.9068C39.4472 40.0796 39.33 40.2293 39.179 40.339C39.0281 40.4486 38.8494 40.5139 38.6633 40.5273C38.4772 40.5408 38.2911 40.5019 38.1259 40.415L32.0899 37.243L26.0579 40.415C25.8928 40.5019 25.7066 40.5408 25.5206 40.5273C25.3345 40.5139 25.1558 40.4486 25.0049 40.339C24.8539 40.2293 24.7366 40.0796 24.6663 39.9068C24.596 39.734 24.5754 39.5449 24.6069 39.361L25.7589 32.643L20.8779 27.885C20.7445 27.7547 20.6502 27.5897 20.6056 27.4086C20.5611 27.2274 20.5681 27.0375 20.6258 26.8601C20.6835 26.6828 20.7897 26.5251 20.9323 26.4049C21.075 26.2847 21.2484 26.2068 21.4329 26.18L28.1769 25.2L31.1899 19.088C31.2811 18.93 31.4123 18.7987 31.5703 18.7075C31.7283 18.6162 31.9075 18.5682 32.0899 18.5682C32.2724 18.5682 32.4516 18.6162 32.6096 18.7075C32.7676 18.7987 32.8988 18.93 32.9899 19.088Z" fill="#909192"/>
<path d="M61.356 10.566L32.356 2.56605C32.182 2.51705 31.9979 2.51705 31.824 2.56605L2.82397 10.566C2.61299 10.6243 2.42693 10.7501 2.29434 10.9242C2.16176 11.0984 2.08996 11.3112 2.08997 11.53C2.08997 51.755 31.439 63.3521 31.736 63.465C31.9641 63.5514 32.2159 63.5514 32.444 63.465C32.741 63.3521 62.09 51.755 62.09 11.53C62.09 11.3112 62.0182 11.0984 61.8856 10.9242C61.753 10.7501 61.5669 10.6243 61.356 10.566ZM32.09 59.2491C27.099 56.849 7.04997 45.298 6.12397 13.805L32.09 6.64205L58.057 13.805C57.132 45.28 37.104 56.842 32.09 59.2491Z" fill="#BB0A07"/>
</svg>
